<svg viewBox="0 0 32 32" xmlns="http://www.w3.org/2000/svg"><path d="m7 3c-.550781 0-1 .449219-1 1s.449219 1 1 1 1-.449219 1-1-.449219-1-1-1zm0 2c-.753906 0-1.441406.207031-2 .625s-1 1.101563-1 1.875v18c0 .773438.441406 1.457031 1 1.875.304688.230469.65625.398438 1.03125.5-.007812.042969-.03125.078125-.03125.125 0 .550781.449219 1 1 1s1-.449219 1-1c0-.046875-.023437-.082031-.03125-.125.375-.101562.726563-.269531 1.03125-.5.558594-.417969 1-1.101562 1-1.875v-.5h12v.5c0 .773438.441406 1.457031 1 1.875.304688.230469.65625.398438 1.03125.5-.007812.042969-.03125.078125-.03125.125 0 .550781.449219 1 1 1s1-.449219 1-1c0-.046875-.023437-.082031-.03125-.125.375-.101562.726563-.269531 1.03125-.5.558594-.417969 1-1.101562 1-1.875v-18c0-.773437-.441406-1.457031-1-1.875s-1.246094-.625-2-.625-1.441406.207031-2 .625-1 1.101563-1 1.875v.5h-12v-.5c0-.773437-.441406-1.457031-1-1.875s-1.246094-.625-2-.625zm18 0c.550781 0 1-.449219 1-1s-.449219-1-1-1-1 .449219-1 1 .449219 1 1 1zm-18 2c.351563 0 .644531.125.8125.25s.1875.195313.1875.25v18c0 .054688-.019531.125-.1875.25s-.460937.25-.8125.25c-.351562 0-.644531-.125-.8125-.25s-.1875-.195312-.1875-.25v-18c0-.054687.019531-.125.1875-.25s.460938-.25.8125-.25zm18 0c.351563 0 .644531.125.8125.25s.1875.195313.1875.25v18c0 .054688-.019531.125-.1875.25s-.460937.25-.8125.25c-.351562 0-.644531-.125-.8125-.25s-.1875-.195312-.1875-.25v-18c0-.054687.019531-.125.1875-.25s.460938-.25.8125-.25zm-15 3h12v13h-12zm2 2v2h8v-2zm3 3v2h5v-2zm-3 3v2h8v-2z"/></svg>